<!DOCTYPE svg PUBLIC "-//W3C//DTD SVG 1.1//EN" "http://www.w3.org/Graphics/SVG/1.1/DTD/svg11.dtd">
<!-- Uploaded to: SVG Repo, www.svgrepo.com, Transformed by: SVG Repo Mixer Tools -->
<svg width="800px" height="800px" viewBox="-4.8 -4.8 33.60 33.60" fill="none" xmlns="http://www.w3.org/2000/svg">
<g id="SVGRepo_bgCarrier" stroke-width="0">
<path transform="translate(-4.8, -4.8), scale(2.1)" fill="#88D3EC" d="M9.166.33a2.25 2.25 0 00-2.332 0l-5.25 3.182A2.25 2.25 0 00.5 5.436v5.128a2.25 2.25 0 001.084 1.924l5.25 3.182a2.25 2.25 0 002.332 0l5.25-3.182a2.25 2.25 0 001.084-1.924V5.436a2.25 2.25 0 00-1.084-1.924L9.166.33z" strokewidth="0"/>
</g>
<g id="SVGRepo_tracerCarrier" stroke-linecap="round" stroke-linejoin="round"/>
<g id="SVGRepo_iconCarrier"> <path d="M8 22.0002H16C18.8284 22.0002 20.2426 22.0002 21.1213 21.1215C22 20.2429 22 18.8286 22 16.0002V15.0002C22 12.1718 22 10.7576 21.1213 9.8789C20.3529 9.11051 19.175 9.01406 17 9.00195M7 9.00195C4.82497 9.01406 3.64706 9.11051 2.87868 9.87889C2 10.7576 2 12.1718 2 15.0002L2 16.0002C2 18.8286 2 20.2429 2.87868 21.1215C3.17848 21.4213 3.54062 21.6188 4 21.749" stroke="#143174" stroke-width="1.5" stroke-linecap="round"/> <path d="M12 2L12 15M12 15L9 11.5M12 15L15 11.5" stroke="#143174" stroke-width="1.5" stroke-linecap="round" stroke-linejoin="round"/> </g>
</svg>