<svg viewBox="0 0 30 28" xmlns="http://www.w3.org/2000/svg">
  <!-- HEXAGON (replaced polygon) -->
  <path 
    transform="translate(1.5, 2) scale(1.6)"
    fill="#252525"
    d="M9.166.33a2.25 2.25 0 00-2.332 0l-5.25 3.182A2.25 2.25 0 00.5 5.436v5.128a2.25 2.25 0 001.084 1.924l5.25 3.182a2.25 2.25 0 002.332 0l5.25-3.182a2.25 2.25 0 001.084-1.924V5.436a2.25 2.25 0 00-1.084-1.924L9.166.33z">
  </path>
  
  <!-- LEFT ICON - Music Player -->
  <g transform="translate(2, 4) scale(0.8)">
    <path d="M12 18C12 20.2091 10.2091 22 8 22C5.79086 22 4 20.2091 4 18C4 15.7909 5.79086 14 8 14C10.2091 14 12 15.7909 12 18Z" stroke="#6d6d6d" stroke-width="1.5" fill="none"></path>
    <path d="M12 18V6" stroke="#6d6d6d" stroke-width="1.5"></path>
    <path d="M7.8833 10.0587L10.5167 8.74199C10.8816 8.55954 11.0641 8.46831 11.2148 8.35309C11.6051 8.05463 11.872 7.62291 11.9643 7.14028C12 6.95397 12 6.74998 12 6.34199C12 5.3709 12 4.88536 11.8804 4.55528C11.5644 3.68288 10.6899 3.14239 9.7683 3.24989C9.4196 3.29057 8.9853 3.50771 8.1167 3.94199L5.4833 5.25871C5.1184 5.44117 4.9359 5.5324 4.7852 5.64761C4.3949 5.94608 4.128 6.3778 4.0357 6.86043C4 7.04673 4 7.25073 4 7.65871C4 8.6298 4 9.11535 4.1196 9.44543C4.4356 10.3178 5.3101 10.8583 6.2317 10.7508C6.5804 10.7101 7.0147 10.493 7.8833 10.0587Z" stroke="#6d6d6d" stroke-width="1.5" stroke-linecap="round" fill="none"></path>
  </g>

  <!-- RIGHT ICON - Saxophone -->
  <g transform="translate(29, 5) scale(-0.57, 0.57)">
    <ellipse transform="matrix(0.7071 -0.7071 0.7071 0.7071 -3.7059 20.9425)" cx="23.4" cy="14.9" rx="2.9" ry="4.7" fill="none" stroke="#6d6d6d" stroke-width="2" stroke-linecap="round" stroke-linejoin="round" stroke-miterlimit="10"></ellipse>
    <path fill="none" stroke="#6d6d6d" stroke-width="2" stroke-linecap="round" stroke-linejoin="round" stroke-miterlimit="10" d="M4,3h4.2C11.4,3,14,5.6,14,8.8V22c0,1.1,0.9,2,2,2h0c1.1,0,2-0.9,2-2v-3.8c0-1.4,0.5-2.9,1.3-4l0.2-0.3"></path>
    <path fill="none" stroke="#6d6d6d" stroke-width="2" stroke-linecap="round" stroke-linejoin="round" stroke-miterlimit="10" d="M5,3l1.4,2.1C6.8,5.7,7.4,6,8,6h0c1.1,0,2,0.9,2,2v13.8c0,4,3.2,7.2,7.2,7.2h0c3.7,0,6.8-3,6.8-6.8v0 c0-1.2,0.3-2.4,0.9-3.4"></path>
    <line fill="none" stroke="#6d6d6d" stroke-width="2" stroke-linecap="round" stroke-linejoin="round" stroke-miterlimit="10" x1="15" y1="11" x2="13" y2="11"></line>
    <line fill="none" stroke="#6d6d6d" stroke-width="2" stroke-linecap="round" stroke-linejoin="round" stroke-miterlimit="10" x1="15" y1="14" x2="13" y2="14"></line>
    <line fill="none" stroke="#6d6d6d" stroke-width="2" stroke-linecap="round" stroke-linejoin="round" stroke-miterlimit="10" x1="15" y1="17" x2="13" y2="17"></line>
    <line fill="none" stroke="#6d6d6d" stroke-width="2" stroke-linecap="round" stroke-linejoin="round" stroke-miterlimit="10" x1="15" y1="20" x2="13" y2="20"></line>
  </g>
</svg>